<svg width="500" height="500" viewBox="0 0 500 500" fill="none" xmlns="http://www.w3.org/2000/svg">
<rect width="500" height="500" rx="8" fill="#3C3C3B"/>
<path d="M30.984 246C30.0453 246 29.2347 245.701 28.552 245.104C27.9547 244.421 27.656 243.611 27.656 242.672V182.768C27.656 181.829 27.9547 181.061 28.552 180.464C29.2347 179.781 30.0453 179.44 30.984 179.44H49.544C50.4827 179.44 51.2507 179.781 51.848 180.464C52.5307 181.061 52.872 181.829 52.872 182.768V187.504C55.432 185.029 58.3333 183.067 61.576 181.616C64.904 180.165 68.5307 179.44 72.456 179.44H78.216C79.1547 179.44 79.9653 179.781 80.648 180.464C81.3307 181.061 81.672 181.829 81.672 182.768V199.28C81.672 200.219 81.3307 201.029 80.648 201.712C79.9653 202.395 79.1547 202.736 78.216 202.736H63.88C60.808 202.736 58.4613 203.547 56.84 205.168C55.2187 206.704 54.408 209.008 54.408 212.08V242.672C54.408 243.611 54.0667 244.421 53.384 245.104C52.7867 245.701 52.0187 246 51.08 246H30.984ZM101.069 247.28C96.3757 247.28 92.1517 246.384 88.397 244.592C84.7277 242.8 81.8263 240.411 79.693 237.424C77.645 234.352 76.621 230.939 76.621 227.184C76.621 221.04 79.0957 216.219 84.045 212.72C89.0797 209.136 95.7783 206.661 104.141 205.296L118.861 202.992V202.096C118.861 199.451 118.434 197.488 117.581 196.208C116.813 194.843 115.149 194.16 112.589 194.16C110.797 194.16 109.346 194.501 108.237 195.184C107.128 195.867 106.104 196.848 105.165 198.128C104.312 199.067 103.202 199.536 101.837 199.536H83.789C82.8503 199.536 82.125 199.28 81.613 198.768C81.101 198.256 80.8877 197.573 80.973 196.72C81.0583 195.184 81.6983 193.392 82.893 191.344C84.0877 189.211 85.9223 187.163 88.397 185.2C90.957 183.152 94.2423 181.488 98.253 180.208C102.264 178.843 107.085 178.16 112.717 178.16C118.434 178.16 123.341 178.8 127.437 180.08C131.533 181.36 134.904 183.152 137.549 185.456C140.194 187.76 142.157 190.576 143.437 193.904C144.717 197.147 145.357 200.773 145.357 204.784V242.672C145.357 243.611 145.016 244.421 144.333 245.104C143.736 245.701 142.968 246 142.029 246H123.341C122.488 246 121.72 245.701 121.037 245.104C120.354 244.421 120.013 243.611 120.013 242.672V238.576C118.904 240.283 117.41 241.776 115.533 243.056C113.741 244.336 111.608 245.36 109.133 246.128C106.744 246.896 104.056 247.28 101.069 247.28ZM108.493 230.512C110.626 230.512 112.461 230.085 113.997 229.232C115.618 228.293 116.898 226.885 117.837 225.008C118.776 223.131 119.245 220.784 119.245 217.968V217.072L110.029 218.864C106.872 219.461 104.653 220.357 103.373 221.552C102.093 222.661 101.453 223.899 101.453 225.264C101.453 226.288 101.752 227.184 102.349 227.952C102.946 228.72 103.757 229.36 104.781 229.872C105.89 230.299 107.128 230.512 108.493 230.512ZM153.094 246C152.155 246 151.345 245.701 150.662 245.104C150.065 244.421 149.766 243.611 149.766 242.672V158.448C149.766 157.509 150.065 156.741 150.662 156.144C151.345 155.461 152.155 155.12 153.094 155.12H172.166C173.019 155.12 173.787 155.461 174.47 156.144C175.153 156.741 175.494 157.509 175.494 158.448V242.672C175.494 243.611 175.153 244.421 174.47 245.104C173.787 245.701 173.019 246 172.166 246H153.094ZM183.774 270.32C182.835 270.32 182.025 269.979 181.342 269.296C180.745 268.699 180.446 267.931 180.446 266.992V182.768C180.446 181.829 180.745 181.061 181.342 180.464C182.025 179.781 182.835 179.44 183.774 179.44H201.822C202.761 179.44 203.529 179.781 204.126 180.464C204.809 181.061 205.15 181.829 205.15 182.768V186.992C207.198 184.432 209.801 182.341 212.958 180.72C216.115 179.013 219.998 178.16 224.606 178.16C228.617 178.16 232.201 178.757 235.358 179.952C238.601 181.147 241.417 182.981 243.806 185.456C246.195 187.845 248.073 190.917 249.438 194.672C250.803 198.427 251.614 202.821 251.87 207.856C251.955 209.648 251.998 211.269 251.998 212.72C251.998 214.171 251.955 215.835 251.87 217.712C251.699 222.491 250.931 226.715 249.566 230.384C248.201 234.053 246.323 237.168 243.934 239.728C241.545 242.203 238.729 244.08 235.486 245.36C232.243 246.64 228.617 247.28 224.606 247.28C220.681 247.28 217.225 246.64 214.238 245.36C211.251 243.995 208.777 241.904 206.814 239.088V266.992C206.814 267.931 206.473 268.699 205.79 269.296C205.107 269.979 204.339 270.32 203.486 270.32H183.774ZM215.902 227.312C218.121 227.312 219.827 226.885 221.022 226.032C222.302 225.093 223.198 223.856 223.71 222.32C224.307 220.699 224.691 218.864 224.862 216.816C225.118 214.085 225.118 211.355 224.862 208.624C224.691 206.576 224.307 204.784 223.71 203.248C223.198 201.627 222.302 200.389 221.022 199.536C219.827 198.597 218.121 198.128 215.902 198.128C213.683 198.128 211.891 198.597 210.526 199.536C209.246 200.475 208.307 201.712 207.71 203.248C207.198 204.784 206.899 206.491 206.814 208.368C206.729 210.16 206.686 211.781 206.686 213.232C206.686 214.597 206.729 216.176 206.814 217.968C206.899 219.76 207.241 221.339 207.838 222.704C208.521 224.069 209.502 225.179 210.782 226.032C212.062 226.885 213.769 227.312 215.902 227.312ZM258.204 246C257.265 246 256.455 245.701 255.772 245.104C255.175 244.421 254.876 243.611 254.876 242.672V158.448C254.876 157.509 255.175 156.741 255.772 156.144C256.455 155.461 257.265 155.12 258.204 155.12H278.94C279.793 155.12 280.561 155.461 281.244 156.144C281.927 156.741 282.268 157.509 282.268 158.448V186.48C284.487 183.92 287.26 181.915 290.588 180.464C294.001 178.928 297.841 178.16 302.108 178.16C306.716 178.16 310.94 179.227 314.78 181.36C318.705 183.493 321.82 186.693 324.124 190.96C326.513 195.227 327.708 200.603 327.708 207.088V242.672C327.708 243.611 327.367 244.421 326.684 245.104C326.001 245.701 325.233 246 324.38 246H303.516C302.577 246 301.767 245.701 301.084 245.104C300.487 244.421 300.188 243.611 300.188 242.672V207.984C300.188 204.827 299.42 202.395 297.884 200.688C296.348 198.981 294.172 198.128 291.356 198.128C288.54 198.128 286.321 198.981 284.7 200.688C283.079 202.395 282.268 204.827 282.268 207.984V242.672C282.268 243.611 281.927 244.421 281.244 245.104C280.561 245.701 279.793 246 278.94 246H258.204ZM56.968 343.28C51.1653 343.28 46.216 342.683 42.12 341.488C38.024 340.208 34.6533 338.629 32.008 336.752C29.448 334.875 27.5707 332.955 26.376 330.992C25.1813 328.944 24.5413 327.152 24.456 325.616C24.3707 324.677 24.6267 323.909 25.224 323.312C25.9067 322.629 26.632 322.288 27.4 322.288H45.96C46.0453 322.288 46.1733 322.331 46.344 322.416C46.5147 322.416 46.6853 322.501 46.856 322.672C47.9653 323.013 48.9893 323.568 49.928 324.336C50.952 325.104 52.0613 325.787 53.256 326.384C54.536 326.981 56.0293 327.28 57.736 327.28C59.1867 327.28 60.4667 326.981 61.576 326.384C62.7707 325.701 63.368 324.763 63.368 323.568C63.368 322.544 63.0267 321.648 62.344 320.88C61.7467 320.112 60.424 319.387 58.376 318.704C56.328 317.936 53.0427 317.125 48.52 316.272C44.3387 315.419 40.4987 314.181 37 312.56C33.5867 310.853 30.856 308.592 28.808 305.776C26.8453 302.96 25.864 299.504 25.864 295.408C25.864 291.909 27.016 288.539 29.32 285.296C31.624 282.053 35.0373 279.408 39.56 277.36C44.168 275.227 49.8 274.16 56.456 274.16C61.4907 274.16 65.928 274.757 69.768 275.952C73.6933 277.147 76.9787 278.64 79.624 280.432C82.3547 282.224 84.4027 284.144 85.768 286.192C87.2187 288.24 87.9867 290.075 88.072 291.696C88.1573 292.635 87.9013 293.445 87.304 294.128C86.7067 294.725 86.024 295.024 85.256 295.024H68.488C68.232 295.024 67.9333 295.024 67.592 295.024C67.336 294.939 67.1227 294.811 66.952 294.64C65.7573 294.384 64.648 293.915 63.624 293.232C62.6853 292.464 61.6613 291.781 60.552 291.184C59.4427 290.501 58.0347 290.16 56.328 290.16C54.8773 290.16 53.6827 290.501 52.744 291.184C51.8907 291.867 51.464 292.763 51.464 293.872C51.464 294.811 51.7627 295.664 52.36 296.432C52.9573 297.2 54.3227 297.925 56.456 298.608C58.5893 299.291 61.96 300.016 66.568 300.784C72.5413 301.723 77.32 303.301 80.904 305.52C84.488 307.653 87.048 310.171 88.584 313.072C90.12 315.973 90.888 318.875 90.888 321.776C90.888 326.128 89.5653 329.925 86.92 333.168C84.36 336.411 80.52 338.928 75.4 340.72C70.3653 342.427 64.2213 343.28 56.968 343.28ZM113.194 343.28C108.501 343.28 104.277 342.384 100.522 340.592C96.8527 338.8 93.9513 336.411 91.818 333.424C89.77 330.352 88.746 326.939 88.746 323.184C88.746 317.04 91.2207 312.219 96.17 308.72C101.205 305.136 107.903 302.661 116.266 301.296L130.986 298.992V298.096C130.986 295.451 130.559 293.488 129.706 292.208C128.938 290.843 127.274 290.16 124.714 290.16C122.922 290.16 121.471 290.501 120.362 291.184C119.253 291.867 118.229 292.848 117.29 294.128C116.437 295.067 115.327 295.536 113.962 295.536H95.914C94.9753 295.536 94.25 295.28 93.738 294.768C93.226 294.256 93.0127 293.573 93.098 292.72C93.1833 291.184 93.8233 289.392 95.018 287.344C96.2127 285.211 98.0473 283.163 100.522 281.2C103.082 279.152 106.367 277.488 110.378 276.208C114.389 274.843 119.21 274.16 124.842 274.16C130.559 274.16 135.466 274.8 139.562 276.08C143.658 277.36 147.029 279.152 149.674 281.456C152.319 283.76 154.282 286.576 155.562 289.904C156.842 293.147 157.482 296.773 157.482 300.784V338.672C157.482 339.611 157.141 340.421 156.458 341.104C155.861 341.701 155.093 342 154.154 342H135.466C134.613 342 133.845 341.701 133.162 341.104C132.479 340.421 132.138 339.611 132.138 338.672V334.576C131.029 336.283 129.535 337.776 127.658 339.056C125.866 340.336 123.733 341.36 121.258 342.128C118.869 342.896 116.181 343.28 113.194 343.28ZM120.618 326.512C122.751 326.512 124.586 326.085 126.122 325.232C127.743 324.293 129.023 322.885 129.962 321.008C130.901 319.131 131.37 316.784 131.37 313.968V313.072L122.154 314.864C118.997 315.461 116.778 316.357 115.498 317.552C114.218 318.661 113.578 319.899 113.578 321.264C113.578 322.288 113.877 323.184 114.474 323.952C115.071 324.72 115.882 325.36 116.906 325.872C118.015 326.299 119.253 326.512 120.618 326.512ZM165.219 342C164.28 342 163.47 341.701 162.787 341.104C162.19 340.421 161.891 339.611 161.891 338.672V278.768C161.891 277.829 162.19 277.061 162.787 276.464C163.47 275.781 164.28 275.44 165.219 275.44H183.779C184.718 275.44 185.486 275.781 186.083 276.464C186.766 277.061 187.107 277.829 187.107 278.768V283.376C189.326 280.816 192.27 278.64 195.939 276.848C199.608 275.056 203.79 274.16 208.483 274.16C213.091 274.16 217.272 275.227 221.027 277.36C224.782 279.493 227.811 282.693 230.115 286.96C232.419 291.227 233.571 296.603 233.571 303.088V338.672C233.571 339.611 233.23 340.421 232.547 341.104C231.864 341.701 231.054 342 230.115 342H209.891C208.952 342 208.142 341.701 207.459 341.104C206.862 340.421 206.563 339.611 206.563 338.672V303.984C206.563 300.827 205.795 298.395 204.259 296.688C202.723 294.981 200.547 294.128 197.731 294.128C194.915 294.128 192.696 294.981 191.075 296.688C189.454 298.395 188.643 300.827 188.643 303.984V338.672C188.643 339.611 188.302 340.421 187.619 341.104C187.022 341.701 186.254 342 185.315 342H165.219ZM274.828 342C269.025 342 263.905 341.147 259.468 339.44C255.116 337.733 251.703 334.96 249.228 331.12C246.839 327.195 245.644 322.032 245.644 315.632V295.024H235.532C234.593 295.024 233.783 294.725 233.1 294.128C232.503 293.445 232.204 292.635 232.204 291.696V278.768C232.204 277.829 232.503 277.061 233.1 276.464C233.783 275.781 234.593 275.44 235.532 275.44H245.644V254.448C245.644 253.509 245.943 252.741 246.54 252.144C247.223 251.461 248.033 251.12 248.972 251.12H267.532C268.471 251.12 269.239 251.461 269.836 252.144C270.519 252.741 270.86 253.509 270.86 254.448V275.44H286.988C287.927 275.44 288.695 275.781 289.292 276.464C289.975 277.061 290.316 277.829 290.316 278.768V291.696C290.316 292.635 289.975 293.445 289.292 294.128C288.695 294.725 287.927 295.024 286.988 295.024H270.86V313.456C270.86 315.931 271.372 317.893 272.396 319.344C273.42 320.709 275.041 321.392 277.26 321.392H288.012C288.951 321.392 289.719 321.733 290.316 322.416C290.999 323.013 291.34 323.781 291.34 324.72V338.672C291.34 339.611 290.999 340.421 290.316 341.104C289.719 341.701 288.951 342 288.012 342H274.828ZM326.284 343.28C318.775 343.28 312.417 342.171 307.212 339.952C302.092 337.733 298.167 334.491 295.436 330.224C292.705 325.872 291.169 320.667 290.828 314.608C290.743 312.816 290.7 310.853 290.7 308.72C290.7 306.587 290.743 304.624 290.828 302.832C291.169 296.688 292.791 291.483 295.692 287.216C298.593 282.949 302.604 279.707 307.724 277.488C312.929 275.269 319.116 274.16 326.284 274.16C333.452 274.16 339.596 275.269 344.716 277.488C349.921 279.707 353.975 282.949 356.876 287.216C359.777 291.483 361.399 296.688 361.74 302.832C361.911 304.624 361.996 306.587 361.996 308.72C361.996 310.853 361.911 312.816 361.74 314.608C361.399 320.667 359.863 325.872 357.132 330.224C354.401 334.491 350.433 337.733 345.228 339.952C340.108 342.171 333.793 343.28 326.284 343.28ZM326.284 325.232C329.441 325.232 331.617 324.293 332.812 322.416C334.007 320.539 334.689 317.723 334.86 313.968C334.945 312.688 334.988 310.939 334.988 308.72C334.988 306.501 334.945 304.752 334.86 303.472C334.689 299.803 334.007 297.029 332.812 295.152C331.617 293.189 329.441 292.208 326.284 292.208C323.212 292.208 321.079 293.189 319.884 295.152C318.689 297.029 317.964 299.803 317.708 303.472C317.623 304.752 317.58 306.501 317.58 308.72C317.58 310.939 317.623 312.688 317.708 313.968C317.964 317.723 318.689 320.539 319.884 322.416C321.079 324.293 323.212 325.232 326.284 325.232ZM393.993 343.28C388.19 343.28 383.241 342.683 379.145 341.488C375.049 340.208 371.678 338.629 369.033 336.752C366.473 334.875 364.596 332.955 363.401 330.992C362.206 328.944 361.566 327.152 361.481 325.616C361.396 324.677 361.652 323.909 362.249 323.312C362.932 322.629 363.657 322.288 364.425 322.288H382.985C383.07 322.288 383.198 322.331 383.369 322.416C383.54 322.416 383.71 322.501 383.881 322.672C384.99 323.013 386.014 323.568 386.953 324.336C387.977 325.104 389.086 325.787 390.281 326.384C391.561 326.981 393.054 327.28 394.761 327.28C396.212 327.28 397.492 326.981 398.601 326.384C399.796 325.701 400.393 324.763 400.393 323.568C400.393 322.544 400.052 321.648 399.369 320.88C398.772 320.112 397.449 319.387 395.401 318.704C393.353 317.936 390.068 317.125 385.545 316.272C381.364 315.419 377.524 314.181 374.025 312.56C370.612 310.853 367.881 308.592 365.833 305.776C363.87 302.96 362.889 299.504 362.889 295.408C362.889 291.909 364.041 288.539 366.345 285.296C368.649 282.053 372.062 279.408 376.585 277.36C381.193 275.227 386.825 274.16 393.481 274.16C398.516 274.16 402.953 274.757 406.793 275.952C410.718 277.147 414.004 278.64 416.649 280.432C419.38 282.224 421.428 284.144 422.793 286.192C424.244 288.24 425.012 290.075 425.097 291.696C425.182 292.635 424.926 293.445 424.329 294.128C423.732 294.725 423.049 295.024 422.281 295.024H405.513C405.257 295.024 404.958 295.024 404.617 295.024C404.361 294.939 404.148 294.811 403.977 294.64C402.782 294.384 401.673 293.915 400.649 293.232C399.71 292.464 398.686 291.781 397.577 291.184C396.468 290.501 395.06 290.16 393.353 290.16C391.902 290.16 390.708 290.501 389.769 291.184C388.916 291.867 388.489 292.763 388.489 293.872C388.489 294.811 388.788 295.664 389.385 296.432C389.982 297.2 391.348 297.925 393.481 298.608C395.614 299.291 398.985 300.016 403.593 300.784C409.566 301.723 414.345 303.301 417.929 305.52C421.513 307.653 424.073 310.171 425.609 313.072C427.145 315.973 427.913 318.875 427.913 321.776C427.913 326.128 426.59 329.925 423.945 333.168C421.385 336.411 417.545 338.928 412.425 340.72C407.39 342.427 401.246 343.28 393.993 343.28ZM449.607 342C448.668 342 447.858 341.701 447.175 341.104C446.578 340.421 446.279 339.611 446.279 338.672V319.472C446.279 318.533 446.578 317.723 447.175 317.04C447.858 316.357 448.668 316.016 449.607 316.016H468.807C469.746 316.016 470.556 316.357 471.239 317.04C471.922 317.723 472.263 318.533 472.263 319.472V338.672C472.263 339.611 471.922 340.421 471.239 341.104C470.556 341.701 469.746 342 468.807 342H449.607Z" fill="#C1E7FE"/>
</svg>
