<svg width="500" height="500" viewBox="0 0 500 500" fill="none" xmlns="http://www.w3.org/2000/svg">
<rect width="500" height="500" rx="12" fill="#C1E7FE"/>
<path d="M69.3004 312C67.1004 312 65.2004 311.3 63.6004 309.9C62.2004 308.3 61.5004 306.4 61.5004 304.2V163.8C61.5004 161.6 62.2004 159.8 63.6004 158.4C65.2004 156.8 67.1004 156 69.3004 156H112.8C115 156 116.8 156.8 118.2 158.4C119.8 159.8 120.6 161.6 120.6 163.8V174.9C126.6 169.1 133.4 164.5 141 161.1C148.8 157.7 157.3 156 166.5 156H180C182.2 156 184.1 156.8 185.7 158.4C187.3 159.8 188.1 161.6 188.1 163.8V202.5C188.1 204.7 187.3 206.6 185.7 208.2C184.1 209.8 182.2 210.6 180 210.6H146.4C139.2 210.6 133.7 212.5 129.9 216.3C126.1 219.9 124.2 225.3 124.2 232.5V304.2C124.2 306.4 123.4 308.3 121.8 309.9C120.4 311.3 118.6 312 116.4 312H69.3004ZM256.599 315C242.999 315 231.399 313.6 221.799 310.8C212.199 307.8 204.299 304.1 198.099 299.7C192.099 295.3 187.699 290.8 184.899 286.2C182.099 281.4 180.599 277.2 180.399 273.6C180.199 271.4 180.799 269.6 182.199 268.2C183.799 266.6 185.499 265.8 187.299 265.8H230.799C230.999 265.8 231.299 265.9 231.699 266.1C232.099 266.1 232.499 266.3 232.899 266.7C235.499 267.5 237.899 268.8 240.099 270.6C242.499 272.4 245.099 274 247.899 275.4C250.899 276.8 254.399 277.5 258.399 277.5C261.799 277.5 264.799 276.8 267.399 275.4C270.199 273.8 271.599 271.6 271.599 268.8C271.599 266.4 270.799 264.3 269.199 262.5C267.799 260.7 264.699 259 259.899 257.4C255.099 255.6 247.399 253.7 236.799 251.7C226.999 249.7 217.999 246.8 209.799 243C201.799 239 195.399 233.7 190.599 227.1C185.999 220.5 183.699 212.4 183.699 202.8C183.699 194.6 186.399 186.7 191.799 179.1C197.199 171.5 205.199 165.3 215.799 160.5C226.599 155.5 239.799 153 255.399 153C267.199 153 277.599 154.4 286.599 157.2C295.799 160 303.499 163.5 309.699 167.7C316.099 171.9 320.899 176.4 324.099 181.2C327.499 186 329.299 190.3 329.499 194.1C329.699 196.3 329.099 198.2 327.699 199.8C326.299 201.2 324.699 201.9 322.899 201.9H283.599C282.999 201.9 282.299 201.9 281.499 201.9C280.899 201.7 280.399 201.4 279.999 201C277.199 200.4 274.599 199.3 272.199 197.7C269.999 195.9 267.599 194.3 264.999 192.9C262.399 191.3 259.099 190.5 255.099 190.5C251.699 190.5 248.899 191.3 246.699 192.9C244.699 194.5 243.699 196.6 243.699 199.2C243.699 201.4 244.399 203.4 245.799 205.2C247.199 207 250.399 208.7 255.399 210.3C260.399 211.9 268.299 213.6 279.099 215.4C293.099 217.6 304.299 221.3 312.699 226.5C321.099 231.5 327.099 237.4 330.699 244.2C334.299 251 336.099 257.8 336.099 264.6C336.099 274.8 332.999 283.7 326.799 291.3C320.799 298.9 311.799 304.8 299.799 309C287.999 313 273.599 315 256.599 315ZM386.944 312C384.744 312 382.844 311.3 381.244 309.9C379.844 308.3 379.144 306.4 379.144 304.2V259.2C379.144 257 379.844 255.1 381.244 253.5C382.844 251.9 384.744 251.1 386.944 251.1H431.944C434.144 251.1 436.044 251.9 437.644 253.5C439.244 255.1 440.044 257 440.044 259.2V304.2C440.044 306.4 439.244 308.3 437.644 309.9C436.044 311.3 434.144 312 431.944 312H386.944Z" fill="#3C3C3B"/>
<path d="M79.3849 401.65C76.2216 401.65 73.4266 401.065 70.9999 399.895C68.6166 398.725 66.7316 397.035 65.3449 394.825C63.9582 392.572 63.1999 389.885 63.0699 386.765C63.0266 386.072 63.0049 385.205 63.0049 384.165C63.0049 383.082 63.0266 382.193 63.0699 381.5C63.1999 378.337 63.9366 375.65 65.2799 373.44C66.6666 371.187 68.5732 369.475 70.9999 368.305C73.4266 367.135 76.2216 366.55 79.3849 366.55C82.2882 366.55 84.7582 366.962 86.7949 367.785C88.8316 368.565 90.4999 369.562 91.7999 370.775C93.0999 371.988 94.0532 373.267 94.6599 374.61C95.3099 375.91 95.6566 377.058 95.6999 378.055C95.7432 378.488 95.5916 378.878 95.2449 379.225C94.9416 379.528 94.5732 379.68 94.1399 379.68H87.1849C86.7516 379.68 86.4049 379.572 86.1449 379.355C85.9282 379.095 85.7116 378.748 85.4949 378.315C84.8882 376.798 84.1082 375.715 83.1549 375.065C82.2016 374.415 81.0099 374.09 79.5799 374.09C77.6299 374.09 76.0916 374.718 74.9649 375.975C73.8382 377.232 73.2316 379.182 73.1449 381.825C73.1016 383.515 73.1016 385.053 73.1449 386.44C73.2749 389.127 73.8816 391.077 74.9649 392.29C76.0916 393.503 77.6299 394.11 79.5799 394.11C81.0966 394.11 82.3099 393.785 83.2199 393.135C84.1299 392.485 84.8882 391.402 85.4949 389.885C85.6682 389.452 85.8849 389.127 86.1449 388.91C86.4049 388.65 86.7516 388.52 87.1849 388.52H94.1399C94.5732 388.52 94.9416 388.693 95.2449 389.04C95.5916 389.343 95.7432 389.712 95.6999 390.145C95.6566 390.882 95.4399 391.748 95.0499 392.745C94.7032 393.742 94.1182 394.76 93.2949 395.8C92.5149 396.84 91.4966 397.815 90.2399 398.725C88.9832 399.592 87.4449 400.307 85.6249 400.87C83.8482 401.39 81.7682 401.65 79.3849 401.65ZM192.295 401.65C188.698 401.65 185.687 401.065 183.26 399.895C180.833 398.682 178.97 396.97 177.67 394.76C176.413 392.55 175.72 389.972 175.59 387.025C175.547 386.158 175.525 385.183 175.525 384.1C175.525 382.973 175.547 381.998 175.59 381.175C175.72 378.185 176.457 375.607 177.8 373.44C179.143 371.23 181.028 369.54 183.455 368.37C185.882 367.157 188.828 366.55 192.295 366.55C195.718 366.55 198.643 367.157 201.07 368.37C203.497 369.54 205.382 371.23 206.725 373.44C208.068 375.607 208.805 378.185 208.935 381.175C209.022 381.998 209.065 382.973 209.065 384.1C209.065 385.183 209.022 386.158 208.935 387.025C208.805 389.972 208.09 392.55 206.79 394.76C205.533 396.97 203.692 398.682 201.265 399.895C198.838 401.065 195.848 401.65 192.295 401.65ZM192.295 394.5C194.418 394.5 196.022 393.85 197.105 392.55C198.188 391.207 198.773 389.257 198.86 386.7C198.903 386.05 198.925 385.183 198.925 384.1C198.925 383.017 198.903 382.15 198.86 381.5C198.773 378.987 198.188 377.058 197.105 375.715C196.022 374.372 194.418 373.7 192.295 373.7C190.172 373.7 188.547 374.372 187.42 375.715C186.337 377.058 185.752 378.987 185.665 381.5C185.622 382.15 185.6 383.017 185.6 384.1C185.6 385.183 185.622 386.05 185.665 386.7C185.752 389.257 186.337 391.207 187.42 392.55C188.547 393.85 190.172 394.5 192.295 394.5ZM303.158 401.65C300.991 401.65 299.063 401.303 297.373 400.61C295.683 399.873 294.253 398.833 293.083 397.49C291.913 396.103 291.025 394.478 290.418 392.615C289.811 390.708 289.443 388.607 289.313 386.31C289.27 385.487 289.248 384.75 289.248 384.1C289.248 383.407 289.27 382.67 289.313 381.89C289.4 379.637 289.746 377.578 290.353 375.715C291.003 373.852 291.891 372.248 293.018 370.905C294.188 369.518 295.618 368.457 297.308 367.72C299.041 366.94 300.991 366.55 303.158 366.55C305.411 366.55 307.34 366.94 308.943 367.72C310.546 368.457 311.868 369.432 312.908 370.645V356.475C312.908 355.998 313.06 355.608 313.363 355.305C313.666 355.002 314.056 354.85 314.533 354.85H321.228C321.661 354.85 322.03 355.002 322.333 355.305C322.636 355.608 322.788 355.998 322.788 356.475V399.375C322.788 399.852 322.636 400.242 322.333 400.545C322.03 400.848 321.661 401 321.228 401H314.988C314.555 401 314.186 400.848 313.883 400.545C313.58 400.242 313.428 399.852 313.428 399.375V397.165C312.345 398.465 310.98 399.548 309.333 400.415C307.686 401.238 305.628 401.65 303.158 401.65ZM306.148 393.85C307.751 393.85 309.03 393.482 309.983 392.745C310.98 392.008 311.695 391.077 312.128 389.95C312.605 388.823 312.865 387.61 312.908 386.31C312.995 385.487 313.038 384.663 313.038 383.84C313.038 383.017 312.995 382.215 312.908 381.435C312.865 380.222 312.605 379.095 312.128 378.055C311.651 376.972 310.915 376.083 309.918 375.39C308.965 374.697 307.708 374.35 306.148 374.35C304.501 374.35 303.201 374.718 302.248 375.455C301.295 376.148 300.601 377.08 300.168 378.25C299.778 379.42 299.54 380.698 299.453 382.085C299.323 383.428 299.323 384.772 299.453 386.115C299.54 387.502 299.778 388.78 300.168 389.95C300.601 391.12 301.295 392.073 302.248 392.81C303.201 393.503 304.501 393.85 306.148 393.85ZM420.878 401.65C415.894 401.65 411.929 400.263 408.983 397.49C406.079 394.717 404.541 390.687 404.368 385.4C404.368 385.053 404.368 384.598 404.368 384.035C404.368 383.428 404.368 382.952 404.368 382.605C404.541 379.268 405.299 376.408 406.643 374.025C407.986 371.598 409.871 369.757 412.298 368.5C414.724 367.2 417.563 366.55 420.813 366.55C424.453 366.55 427.486 367.308 429.913 368.825C432.383 370.298 434.224 372.335 435.438 374.935C436.694 377.492 437.323 380.438 437.323 383.775V385.27C437.323 385.703 437.149 386.072 436.803 386.375C436.499 386.678 436.131 386.83 435.698 386.83H414.443C414.443 386.873 414.443 386.96 414.443 387.09C414.443 387.177 414.443 387.263 414.443 387.35C414.486 388.737 414.746 390.015 415.223 391.185C415.743 392.312 416.458 393.222 417.368 393.915C418.321 394.608 419.448 394.955 420.748 394.955C421.831 394.955 422.719 394.803 423.413 394.5C424.106 394.197 424.669 393.828 425.103 393.395C425.579 392.962 425.926 392.593 426.143 392.29C426.533 391.857 426.836 391.597 427.053 391.51C427.313 391.38 427.703 391.315 428.223 391.315H434.983C435.416 391.315 435.763 391.445 436.023 391.705C436.326 391.922 436.456 392.247 436.413 392.68C436.369 393.373 436.001 394.24 435.308 395.28C434.658 396.277 433.683 397.273 432.383 398.27C431.083 399.223 429.458 400.025 427.508 400.675C425.601 401.325 423.391 401.65 420.878 401.65ZM414.443 380.915H427.183V380.785C427.183 379.225 426.923 377.882 426.403 376.755C425.926 375.585 425.211 374.675 424.258 374.025C423.304 373.375 422.156 373.05 420.813 373.05C419.469 373.05 418.321 373.375 417.368 374.025C416.414 374.675 415.678 375.585 415.158 376.755C414.681 377.882 414.443 379.225 414.443 380.785V380.915Z" fill="#3C3C3B"/>
</svg>
