<svg width="1577" height="520" viewBox="0 0 1577 520" fill="none" xmlns="http://www.w3.org/2000/svg">
<rect x="10" y="10" width="500" height="500" rx="12" fill="#C1E7FE"/>
<path d="M79.3004 322C77.1004 322 75.2004 321.3 73.6004 319.9C72.2004 318.3 71.5004 316.4 71.5004 314.2V173.8C71.5004 171.6 72.2004 169.8 73.6004 168.4C75.2004 166.8 77.1004 166 79.3004 166H122.8C125 166 126.8 166.8 128.2 168.4C129.8 169.8 130.6 171.6 130.6 173.8V184.9C136.6 179.1 143.4 174.5 151 171.1C158.8 167.7 167.3 166 176.5 166H190C192.2 166 194.1 166.8 195.7 168.4C197.3 169.8 198.1 171.6 198.1 173.8V212.5C198.1 214.7 197.3 216.6 195.7 218.2C194.1 219.8 192.2 220.6 190 220.6H156.4C149.2 220.6 143.7 222.5 139.9 226.3C136.1 229.9 134.2 235.3 134.2 242.5V314.2C134.2 316.4 133.4 318.3 131.8 319.9C130.4 321.3 128.6 322 126.4 322H79.3004ZM266.599 325C252.999 325 241.399 323.6 231.799 320.8C222.199 317.8 214.299 314.1 208.099 309.7C202.099 305.3 197.699 300.8 194.899 296.2C192.099 291.4 190.599 287.2 190.399 283.6C190.199 281.4 190.799 279.6 192.199 278.2C193.799 276.6 195.499 275.8 197.299 275.8H240.799C240.999 275.8 241.299 275.9 241.699 276.1C242.099 276.1 242.499 276.3 242.899 276.7C245.499 277.5 247.899 278.8 250.099 280.6C252.499 282.4 255.099 284 257.899 285.4C260.899 286.8 264.399 287.5 268.399 287.5C271.799 287.5 274.799 286.8 277.399 285.4C280.199 283.8 281.599 281.6 281.599 278.8C281.599 276.4 280.799 274.3 279.199 272.5C277.799 270.7 274.699 269 269.899 267.4C265.099 265.6 257.399 263.7 246.799 261.7C236.999 259.7 227.999 256.8 219.799 253C211.799 249 205.399 243.7 200.599 237.1C195.999 230.5 193.699 222.4 193.699 212.8C193.699 204.6 196.399 196.7 201.799 189.1C207.199 181.5 215.199 175.3 225.799 170.5C236.599 165.5 249.799 163 265.399 163C277.199 163 287.599 164.4 296.599 167.2C305.799 170 313.499 173.5 319.699 177.7C326.099 181.9 330.899 186.4 334.099 191.2C337.499 196 339.299 200.3 339.499 204.1C339.699 206.3 339.099 208.2 337.699 209.8C336.299 211.2 334.699 211.9 332.899 211.9H293.599C292.999 211.9 292.299 211.9 291.499 211.9C290.899 211.7 290.399 211.4 289.999 211C287.199 210.4 284.599 209.3 282.199 207.7C279.999 205.9 277.599 204.3 274.999 202.9C272.399 201.3 269.099 200.5 265.099 200.5C261.699 200.5 258.899 201.3 256.699 202.9C254.699 204.5 253.699 206.6 253.699 209.2C253.699 211.4 254.399 213.4 255.799 215.2C257.199 217 260.399 218.7 265.399 220.3C270.399 221.9 278.299 223.6 289.099 225.4C303.099 227.6 314.299 231.3 322.699 236.5C331.099 241.5 337.099 247.4 340.699 254.2C344.299 261 346.099 267.8 346.099 274.6C346.099 284.8 342.999 293.7 336.799 301.3C330.799 308.9 321.799 314.8 309.799 319C297.999 323 283.599 325 266.599 325ZM396.944 322C394.744 322 392.844 321.3 391.244 319.9C389.844 318.3 389.144 316.4 389.144 314.2V269.2C389.144 267 389.844 265.1 391.244 263.5C392.844 261.9 394.744 261.1 396.944 261.1H441.944C444.144 261.1 446.044 261.9 447.644 263.5C449.244 265.1 450.044 267 450.044 269.2V314.2C450.044 316.4 449.244 318.3 447.644 319.9C446.044 321.3 444.144 322 441.944 322H396.944Z" fill="#3C3C3B"/>
<path d="M89.3849 411.65C86.2216 411.65 83.4266 411.065 80.9999 409.895C78.6166 408.725 76.7316 407.035 75.3449 404.825C73.9582 402.572 73.1999 399.885 73.0699 396.765C73.0266 396.072 73.0049 395.205 73.0049 394.165C73.0049 393.082 73.0266 392.193 73.0699 391.5C73.1999 388.337 73.9366 385.65 75.2799 383.44C76.6666 381.187 78.5732 379.475 80.9999 378.305C83.4266 377.135 86.2216 376.55 89.3849 376.55C92.2882 376.55 94.7582 376.962 96.7949 377.785C98.8316 378.565 100.5 379.562 101.8 380.775C103.1 381.988 104.053 383.267 104.66 384.61C105.31 385.91 105.657 387.058 105.7 388.055C105.743 388.488 105.592 388.878 105.245 389.225C104.942 389.528 104.573 389.68 104.14 389.68H97.1849C96.7516 389.68 96.4049 389.572 96.1449 389.355C95.9282 389.095 95.7116 388.748 95.4949 388.315C94.8882 386.798 94.1082 385.715 93.1549 385.065C92.2016 384.415 91.0099 384.09 89.5799 384.09C87.6299 384.09 86.0916 384.718 84.9649 385.975C83.8382 387.232 83.2316 389.182 83.1449 391.825C83.1016 393.515 83.1016 395.053 83.1449 396.44C83.2749 399.127 83.8816 401.077 84.9649 402.29C86.0916 403.503 87.6299 404.11 89.5799 404.11C91.0966 404.11 92.3099 403.785 93.2199 403.135C94.1299 402.485 94.8882 401.402 95.4949 399.885C95.6682 399.452 95.8849 399.127 96.1449 398.91C96.4049 398.65 96.7516 398.52 97.1849 398.52H104.14C104.573 398.52 104.942 398.693 105.245 399.04C105.592 399.343 105.743 399.712 105.7 400.145C105.657 400.882 105.44 401.748 105.05 402.745C104.703 403.742 104.118 404.76 103.295 405.8C102.515 406.84 101.497 407.815 100.24 408.725C98.9832 409.592 97.4449 410.307 95.6249 410.87C93.8482 411.39 91.7682 411.65 89.3849 411.65ZM202.295 411.65C198.698 411.65 195.687 411.065 193.26 409.895C190.833 408.682 188.97 406.97 187.67 404.76C186.413 402.55 185.72 399.972 185.59 397.025C185.547 396.158 185.525 395.183 185.525 394.1C185.525 392.973 185.547 391.998 185.59 391.175C185.72 388.185 186.457 385.607 187.8 383.44C189.143 381.23 191.028 379.54 193.455 378.37C195.882 377.157 198.828 376.55 202.295 376.55C205.718 376.55 208.643 377.157 211.07 378.37C213.497 379.54 215.382 381.23 216.725 383.44C218.068 385.607 218.805 388.185 218.935 391.175C219.022 391.998 219.065 392.973 219.065 394.1C219.065 395.183 219.022 396.158 218.935 397.025C218.805 399.972 218.09 402.55 216.79 404.76C215.533 406.97 213.692 408.682 211.265 409.895C208.838 411.065 205.848 411.65 202.295 411.65ZM202.295 404.5C204.418 404.5 206.022 403.85 207.105 402.55C208.188 401.207 208.773 399.257 208.86 396.7C208.903 396.05 208.925 395.183 208.925 394.1C208.925 393.017 208.903 392.15 208.86 391.5C208.773 388.987 208.188 387.058 207.105 385.715C206.022 384.372 204.418 383.7 202.295 383.7C200.172 383.7 198.547 384.372 197.42 385.715C196.337 387.058 195.752 388.987 195.665 391.5C195.622 392.15 195.6 393.017 195.6 394.1C195.6 395.183 195.622 396.05 195.665 396.7C195.752 399.257 196.337 401.207 197.42 402.55C198.547 403.85 200.172 404.5 202.295 404.5ZM313.158 411.65C310.991 411.65 309.063 411.303 307.373 410.61C305.683 409.873 304.253 408.833 303.083 407.49C301.913 406.103 301.025 404.478 300.418 402.615C299.811 400.708 299.443 398.607 299.313 396.31C299.27 395.487 299.248 394.75 299.248 394.1C299.248 393.407 299.27 392.67 299.313 391.89C299.4 389.637 299.746 387.578 300.353 385.715C301.003 383.852 301.891 382.248 303.018 380.905C304.188 379.518 305.618 378.457 307.308 377.72C309.041 376.94 310.991 376.55 313.158 376.55C315.411 376.55 317.34 376.94 318.943 377.72C320.546 378.457 321.868 379.432 322.908 380.645V366.475C322.908 365.998 323.06 365.608 323.363 365.305C323.666 365.002 324.056 364.85 324.533 364.85H331.228C331.661 364.85 332.03 365.002 332.333 365.305C332.636 365.608 332.788 365.998 332.788 366.475V409.375C332.788 409.852 332.636 410.242 332.333 410.545C332.03 410.848 331.661 411 331.228 411H324.988C324.555 411 324.186 410.848 323.883 410.545C323.58 410.242 323.428 409.852 323.428 409.375V407.165C322.345 408.465 320.98 409.548 319.333 410.415C317.686 411.238 315.628 411.65 313.158 411.65ZM316.148 403.85C317.751 403.85 319.03 403.482 319.983 402.745C320.98 402.008 321.695 401.077 322.128 399.95C322.605 398.823 322.865 397.61 322.908 396.31C322.995 395.487 323.038 394.663 323.038 393.84C323.038 393.017 322.995 392.215 322.908 391.435C322.865 390.222 322.605 389.095 322.128 388.055C321.651 386.972 320.915 386.083 319.918 385.39C318.965 384.697 317.708 384.35 316.148 384.35C314.501 384.35 313.201 384.718 312.248 385.455C311.295 386.148 310.601 387.08 310.168 388.25C309.778 389.42 309.54 390.698 309.453 392.085C309.323 393.428 309.323 394.772 309.453 396.115C309.54 397.502 309.778 398.78 310.168 399.95C310.601 401.12 311.295 402.073 312.248 402.81C313.201 403.503 314.501 403.85 316.148 403.85ZM430.878 411.65C425.894 411.65 421.929 410.263 418.983 407.49C416.079 404.717 414.541 400.687 414.368 395.4C414.368 395.053 414.368 394.598 414.368 394.035C414.368 393.428 414.368 392.952 414.368 392.605C414.541 389.268 415.299 386.408 416.643 384.025C417.986 381.598 419.871 379.757 422.298 378.5C424.724 377.2 427.563 376.55 430.813 376.55C434.453 376.55 437.486 377.308 439.913 378.825C442.383 380.298 444.224 382.335 445.438 384.935C446.694 387.492 447.323 390.438 447.323 393.775V395.27C447.323 395.703 447.149 396.072 446.803 396.375C446.499 396.678 446.131 396.83 445.698 396.83H424.443C424.443 396.873 424.443 396.96 424.443 397.09C424.443 397.177 424.443 397.263 424.443 397.35C424.486 398.737 424.746 400.015 425.223 401.185C425.743 402.312 426.458 403.222 427.368 403.915C428.321 404.608 429.448 404.955 430.748 404.955C431.831 404.955 432.719 404.803 433.413 404.5C434.106 404.197 434.669 403.828 435.103 403.395C435.579 402.962 435.926 402.593 436.143 402.29C436.533 401.857 436.836 401.597 437.053 401.51C437.313 401.38 437.703 401.315 438.223 401.315H444.983C445.416 401.315 445.763 401.445 446.023 401.705C446.326 401.922 446.456 402.247 446.413 402.68C446.369 403.373 446.001 404.24 445.308 405.28C444.658 406.277 443.683 407.273 442.383 408.27C441.083 409.223 439.458 410.025 437.508 410.675C435.601 411.325 433.391 411.65 430.878 411.65ZM424.443 390.915H437.183V390.785C437.183 389.225 436.923 387.882 436.403 386.755C435.926 385.585 435.211 384.675 434.258 384.025C433.304 383.375 432.156 383.05 430.813 383.05C429.469 383.05 428.321 383.375 427.368 384.025C426.414 384.675 425.678 385.585 425.158 386.755C424.681 387.882 424.443 389.225 424.443 390.785V390.915Z" fill="#3C3C3B"/>
<path d="M535.74 249C533.32 249 531.23 248.23 529.47 246.69C527.93 244.93 527.16 242.84 527.16 240.42V85.98C527.16 83.56 527.93 81.58 529.47 80.04C531.23 78.28 533.32 77.4 535.74 77.4H583.59C586.01 77.4 587.99 78.28 589.53 80.04C591.29 81.58 592.17 83.56 592.17 85.98V98.19C598.77 91.81 606.25 86.75 614.61 83.01C623.19 79.27 632.54 77.4 642.66 77.4H657.51C659.93 77.4 662.02 78.28 663.78 80.04C665.54 81.58 666.42 83.56 666.42 85.98V128.55C666.42 130.97 665.54 133.06 663.78 134.82C662.02 136.58 659.93 137.46 657.51 137.46H620.55C612.63 137.46 606.58 139.55 602.4 143.73C598.22 147.69 596.13 153.63 596.13 161.55V240.42C596.13 242.84 595.25 244.93 593.49 246.69C591.95 248.23 589.97 249 587.55 249H535.74ZM716.428 252.3C704.328 252.3 693.438 249.99 683.758 245.37C674.298 240.75 666.818 234.59 661.318 226.89C656.038 218.97 653.398 210.17 653.398 200.49C653.398 184.65 659.778 172.22 672.538 163.2C685.518 153.96 702.788 147.58 724.348 144.06L762.298 138.12V135.81C762.298 128.99 761.198 123.93 758.998 120.63C757.018 117.11 752.728 115.35 746.128 115.35C741.508 115.35 737.768 116.23 734.908 117.99C732.048 119.75 729.408 122.28 726.988 125.58C724.788 128 721.928 129.21 718.408 129.21H671.878C669.458 129.21 667.588 128.55 666.268 127.23C664.948 125.91 664.398 124.15 664.618 121.95C664.838 117.99 666.488 113.37 669.568 108.09C672.648 102.59 677.378 97.31 683.758 92.25C690.358 86.97 698.828 82.68 709.168 79.38C719.508 75.86 731.938 74.1 746.458 74.1C761.198 74.1 773.848 75.75 784.408 79.05C794.968 82.35 803.658 86.97 810.478 92.91C817.298 98.85 822.358 106.11 825.658 114.69C828.958 123.05 830.608 132.4 830.608 142.74V240.42C830.608 242.84 829.728 244.93 827.968 246.69C826.428 248.23 824.448 249 822.028 249H773.848C771.648 249 769.668 248.23 767.908 246.69C766.148 244.93 765.268 242.84 765.268 240.42V229.86C762.408 234.26 758.558 238.11 753.718 241.41C749.098 244.71 743.598 247.35 737.218 249.33C731.058 251.31 724.128 252.3 716.428 252.3ZM735.568 209.07C741.068 209.07 745.798 207.97 749.758 205.77C753.938 203.35 757.238 199.72 759.658 194.88C762.078 190.04 763.288 183.99 763.288 176.73V174.42L739.528 179.04C731.388 180.58 725.668 182.89 722.368 185.97C719.068 188.83 717.418 192.02 717.418 195.54C717.418 198.18 718.188 200.49 719.728 202.47C721.268 204.45 723.358 206.1 725.998 207.42C728.858 208.52 732.048 209.07 735.568 209.07ZM850.555 249C848.135 249 846.045 248.23 844.285 246.69C842.745 244.93 841.975 242.84 841.975 240.42V23.28C841.975 20.86 842.745 18.88 844.285 17.34C846.045 15.58 848.135 14.7 850.555 14.7H899.725C901.925 14.7 903.905 15.58 905.665 17.34C907.425 18.88 908.305 20.86 908.305 23.28V240.42C908.305 242.84 907.425 244.93 905.665 246.69C903.905 248.23 901.925 249 899.725 249H850.555ZM929.652 311.7C927.232 311.7 925.142 310.82 923.382 309.06C921.842 307.52 921.072 305.54 921.072 303.12V85.98C921.072 83.56 921.842 81.58 923.382 80.04C925.142 78.28 927.232 77.4 929.652 77.4H976.182C978.602 77.4 980.582 78.28 982.122 80.04C983.882 81.58 984.762 83.56 984.762 85.98V96.87C990.042 90.27 996.752 84.88 1004.89 80.7C1013.03 76.3 1023.04 74.1 1034.92 74.1C1045.26 74.1 1054.5 75.64 1062.64 78.72C1071 81.8 1078.26 86.53 1084.42 92.91C1090.58 99.07 1095.42 106.99 1098.94 116.67C1102.46 126.35 1104.55 137.68 1105.21 150.66C1105.43 155.28 1105.54 159.46 1105.54 163.2C1105.54 166.94 1105.43 171.23 1105.21 176.07C1104.77 188.39 1102.79 199.28 1099.27 208.74C1095.75 218.2 1090.91 226.23 1084.75 232.83C1078.59 239.21 1071.33 244.05 1062.97 247.35C1054.61 250.65 1045.26 252.3 1034.92 252.3C1024.8 252.3 1015.89 250.65 1008.19 247.35C1000.49 243.83 994.112 238.44 989.052 231.18V303.12C989.052 305.54 988.172 307.52 986.412 309.06C984.652 310.82 982.672 311.7 980.472 311.7H929.652ZM1012.48 200.82C1018.2 200.82 1022.6 199.72 1025.68 197.52C1028.98 195.1 1031.29 191.91 1032.61 187.95C1034.15 183.77 1035.14 179.04 1035.58 173.76C1036.24 166.72 1036.24 159.68 1035.58 152.64C1035.14 147.36 1034.15 142.74 1032.61 138.78C1031.29 134.6 1028.98 131.41 1025.68 129.21C1022.6 126.79 1018.2 125.58 1012.48 125.58C1006.76 125.58 1002.14 126.79 998.622 129.21C995.322 131.63 992.902 134.82 991.362 138.78C990.042 142.74 989.272 147.14 989.052 151.98C988.832 156.6 988.722 160.78 988.722 164.52C988.722 168.04 988.832 172.11 989.052 176.73C989.272 181.35 990.152 185.42 991.692 188.94C993.452 192.46 995.982 195.32 999.282 197.52C1002.58 199.72 1006.98 200.82 1012.48 200.82ZM1121.54 249C1119.12 249 1117.03 248.23 1115.27 246.69C1113.73 244.93 1112.96 242.84 1112.96 240.42V23.28C1112.96 20.86 1113.73 18.88 1115.27 17.34C1117.03 15.58 1119.12 14.7 1121.54 14.7H1175C1177.2 14.7 1179.18 15.58 1180.94 17.34C1182.7 18.88 1183.58 20.86 1183.58 23.28V95.55C1189.3 88.95 1196.45 83.78 1205.03 80.04C1213.83 76.08 1223.73 74.1 1234.73 74.1C1246.61 74.1 1257.5 76.85 1267.4 82.35C1277.52 87.85 1285.55 96.1 1291.49 107.1C1297.65 118.1 1300.73 131.96 1300.73 148.68V240.42C1300.73 242.84 1299.85 244.93 1298.09 246.69C1296.33 248.23 1294.35 249 1292.15 249H1238.36C1235.94 249 1233.85 248.23 1232.09 246.69C1230.55 244.93 1229.78 242.84 1229.78 240.42V150.99C1229.78 142.85 1227.8 136.58 1223.84 132.18C1219.88 127.78 1214.27 125.58 1207.01 125.58C1199.75 125.58 1194.03 127.78 1189.85 132.18C1185.67 136.58 1183.58 142.85 1183.58 150.99V240.42C1183.58 242.84 1182.7 244.93 1180.94 246.69C1179.18 248.23 1177.2 249 1175 249H1121.54ZM602.73 500.3C587.77 500.3 575.01 498.76 564.45 495.68C553.89 492.38 545.2 488.31 538.38 483.47C531.78 478.63 526.94 473.68 523.86 468.62C520.78 463.34 519.13 458.72 518.91 454.76C518.69 452.34 519.35 450.36 520.89 448.82C522.65 447.06 524.52 446.18 526.5 446.18H574.35C574.57 446.18 574.9 446.29 575.34 446.51C575.78 446.51 576.22 446.73 576.66 447.17C579.52 448.05 582.16 449.48 584.58 451.46C587.22 453.44 590.08 455.2 593.16 456.74C596.46 458.28 600.31 459.05 604.71 459.05C608.45 459.05 611.75 458.28 614.61 456.74C617.69 454.98 619.23 452.56 619.23 449.48C619.23 446.84 618.35 444.53 616.59 442.55C615.05 440.57 611.64 438.7 606.36 436.94C601.08 434.96 592.61 432.87 580.95 430.67C570.17 428.47 560.27 425.28 551.25 421.1C542.45 416.7 535.41 410.87 530.13 403.61C525.07 396.35 522.54 387.44 522.54 376.88C522.54 367.86 525.51 359.17 531.45 350.81C537.39 342.45 546.19 335.63 557.85 330.35C569.73 324.85 584.25 322.1 601.41 322.1C614.39 322.1 625.83 323.64 635.73 326.72C645.85 329.8 654.32 333.65 661.14 338.27C668.18 342.89 673.46 347.84 676.98 353.12C680.72 358.4 682.7 363.13 682.92 367.31C683.14 369.73 682.48 371.82 680.94 373.58C679.4 375.12 677.64 375.89 675.66 375.89H632.43C631.77 375.89 631 375.89 630.12 375.89C629.46 375.67 628.91 375.34 628.47 374.9C625.39 374.24 622.53 373.03 619.89 371.27C617.47 369.29 614.83 367.53 611.97 365.99C609.11 364.23 605.48 363.35 601.08 363.35C597.34 363.35 594.26 364.23 591.84 365.99C589.64 367.75 588.54 370.06 588.54 372.92C588.54 375.34 589.31 377.54 590.85 379.52C592.39 381.5 595.91 383.37 601.41 385.13C606.91 386.89 615.6 388.76 627.48 390.74C642.88 393.16 655.2 397.23 664.44 402.95C673.68 408.45 680.28 414.94 684.24 422.42C688.2 429.9 690.18 437.38 690.18 444.86C690.18 456.08 686.77 465.87 679.95 474.23C673.35 482.59 663.45 489.08 650.25 493.7C637.27 498.1 621.43 500.3 602.73 500.3ZM747.688 500.3C735.588 500.3 724.698 497.99 715.018 493.37C705.558 488.75 698.078 482.59 692.578 474.89C687.298 466.97 684.658 458.17 684.658 448.49C684.658 432.65 691.038 420.22 703.798 411.2C716.778 401.96 734.048 395.58 755.608 392.06L793.558 386.12V383.81C793.558 376.99 792.458 371.93 790.258 368.63C788.278 365.11 783.988 363.35 777.388 363.35C772.768 363.35 769.028 364.23 766.168 365.99C763.308 367.75 760.668 370.28 758.248 373.58C756.048 376 753.188 377.21 749.668 377.21H703.138C700.718 377.21 698.848 376.55 697.528 375.23C696.208 373.91 695.658 372.15 695.878 369.95C696.098 365.99 697.748 361.37 700.828 356.09C703.908 350.59 708.638 345.31 715.018 340.25C721.618 334.97 730.088 330.68 740.428 327.38C750.768 323.86 763.198 322.1 777.718 322.1C792.458 322.1 805.108 323.75 815.668 327.05C826.228 330.35 834.918 334.97 841.738 340.91C848.558 346.85 853.618 354.11 856.918 362.69C860.218 371.05 861.868 380.4 861.868 390.74V488.42C861.868 490.84 860.988 492.93 859.228 494.69C857.688 496.23 855.708 497 853.288 497H805.108C802.908 497 800.928 496.23 799.168 494.69C797.408 492.93 796.528 490.84 796.528 488.42V477.86C793.668 482.26 789.818 486.11 784.978 489.41C780.358 492.71 774.858 495.35 768.478 497.33C762.318 499.31 755.388 500.3 747.688 500.3ZM766.828 457.07C772.328 457.07 777.058 455.97 781.018 453.77C785.198 451.35 788.498 447.72 790.918 442.88C793.338 438.04 794.548 431.99 794.548 424.73V422.42L770.788 427.04C762.648 428.58 756.928 430.89 753.628 433.97C750.328 436.83 748.678 440.02 748.678 443.54C748.678 446.18 749.448 448.49 750.988 450.47C752.528 452.45 754.618 454.1 757.258 455.42C760.118 456.52 763.308 457.07 766.828 457.07ZM881.815 497C879.395 497 877.305 496.23 875.545 494.69C874.005 492.93 873.235 490.84 873.235 488.42V333.98C873.235 331.56 874.005 329.58 875.545 328.04C877.305 326.28 879.395 325.4 881.815 325.4H929.665C932.085 325.4 934.065 326.28 935.605 328.04C937.365 329.58 938.245 331.56 938.245 333.98V345.86C943.965 339.26 951.555 333.65 961.015 329.03C970.475 324.41 981.255 322.1 993.355 322.1C1005.23 322.1 1016.01 324.85 1025.69 330.35C1035.37 335.85 1043.18 344.1 1049.12 355.1C1055.06 366.1 1058.03 379.96 1058.03 396.68V488.42C1058.03 490.84 1057.15 492.93 1055.39 494.69C1053.63 496.23 1051.54 497 1049.12 497H996.985C994.565 497 992.475 496.23 990.715 494.69C989.175 492.93 988.405 490.84 988.405 488.42V398.99C988.405 390.85 986.425 384.58 982.465 380.18C978.505 375.78 972.895 373.58 965.635 373.58C958.375 373.58 952.655 375.78 948.475 380.18C944.295 384.58 942.205 390.85 942.205 398.99V488.42C942.205 490.84 941.325 492.93 939.565 494.69C938.025 496.23 936.045 497 933.625 497H881.815ZM1164.4 497C1149.44 497 1136.24 494.8 1124.8 490.4C1113.58 486 1104.78 478.85 1098.4 468.95C1092.24 458.83 1089.16 445.52 1089.16 429.02V375.89H1063.09C1060.67 375.89 1058.58 375.12 1056.82 373.58C1055.28 371.82 1054.51 369.73 1054.51 367.31V333.98C1054.51 331.56 1055.28 329.58 1056.82 328.04C1058.58 326.28 1060.67 325.4 1063.09 325.4H1089.16V271.28C1089.16 268.86 1089.93 266.88 1091.47 265.34C1093.23 263.58 1095.32 262.7 1097.74 262.7H1145.59C1148.01 262.7 1149.99 263.58 1151.53 265.34C1153.29 266.88 1154.17 268.86 1154.17 271.28V325.4H1195.75C1198.17 325.4 1200.15 326.28 1201.69 328.04C1203.45 329.58 1204.33 331.56 1204.33 333.98V367.31C1204.33 369.73 1203.45 371.82 1201.69 373.58C1200.15 375.12 1198.17 375.89 1195.75 375.89H1154.17V423.41C1154.17 429.79 1155.49 434.85 1158.13 438.59C1160.77 442.11 1164.95 443.87 1170.67 443.87H1198.39C1200.81 443.87 1202.79 444.75 1204.33 446.51C1206.09 448.05 1206.97 450.03 1206.97 452.45V488.42C1206.97 490.84 1206.09 492.93 1204.33 494.69C1202.79 496.23 1200.81 497 1198.39 497H1164.4ZM1297.06 500.3C1277.7 500.3 1261.31 497.44 1247.89 491.72C1234.69 486 1224.57 477.64 1217.53 466.64C1210.49 455.42 1206.53 442 1205.65 426.38C1205.43 421.76 1205.32 416.7 1205.32 411.2C1205.32 405.7 1205.43 400.64 1205.65 396.02C1206.53 380.18 1210.71 366.76 1218.19 355.76C1225.67 344.76 1236.01 336.4 1249.21 330.68C1262.63 324.96 1278.58 322.1 1297.06 322.1C1315.54 322.1 1331.38 324.96 1344.58 330.68C1358 336.4 1368.45 344.76 1375.93 355.76C1383.41 366.76 1387.59 380.18 1388.47 396.02C1388.91 400.64 1389.13 405.7 1389.13 411.2C1389.13 416.7 1388.91 421.76 1388.47 426.38C1387.59 442 1383.63 455.42 1376.59 466.64C1369.55 477.64 1359.32 486 1345.9 491.72C1332.7 497.44 1316.42 500.3 1297.06 500.3ZM1297.06 453.77C1305.2 453.77 1310.81 451.35 1313.89 446.51C1316.97 441.67 1318.73 434.41 1319.17 424.73C1319.39 421.43 1319.5 416.92 1319.5 411.2C1319.5 405.48 1319.39 400.97 1319.17 397.67C1318.73 388.21 1316.97 381.06 1313.89 376.22C1310.81 371.16 1305.2 368.63 1297.06 368.63C1289.14 368.63 1283.64 371.16 1280.56 376.22C1277.48 381.06 1275.61 388.21 1274.95 397.67C1274.73 400.97 1274.62 405.48 1274.62 411.2C1274.62 416.92 1274.73 421.43 1274.95 424.73C1275.61 434.41 1277.48 441.67 1280.56 446.51C1283.64 451.35 1289.14 453.77 1297.06 453.77ZM1471.62 500.3C1456.66 500.3 1443.9 498.76 1433.34 495.68C1422.78 492.38 1414.09 488.31 1407.27 483.47C1400.67 478.63 1395.83 473.68 1392.75 468.62C1389.67 463.34 1388.02 458.72 1387.8 454.76C1387.58 452.34 1388.24 450.36 1389.78 448.82C1391.54 447.06 1393.41 446.18 1395.39 446.18H1443.24C1443.46 446.18 1443.79 446.29 1444.23 446.51C1444.67 446.51 1445.11 446.73 1445.55 447.17C1448.41 448.05 1451.05 449.48 1453.47 451.46C1456.11 453.44 1458.97 455.2 1462.05 456.74C1465.35 458.28 1469.2 459.05 1473.6 459.05C1477.34 459.05 1480.64 458.28 1483.5 456.74C1486.58 454.98 1488.12 452.56 1488.12 449.48C1488.12 446.84 1487.24 444.53 1485.48 442.55C1483.94 440.57 1480.53 438.7 1475.25 436.94C1469.97 434.96 1461.5 432.87 1449.84 430.67C1439.06 428.47 1429.16 425.28 1420.14 421.1C1411.34 416.7 1404.3 410.87 1399.02 403.61C1393.96 396.35 1391.43 387.44 1391.43 376.88C1391.43 367.86 1394.4 359.17 1400.34 350.81C1406.28 342.45 1415.08 335.63 1426.74 330.35C1438.62 324.85 1453.14 322.1 1470.3 322.1C1483.28 322.1 1494.72 323.64 1504.62 326.72C1514.74 329.8 1523.21 333.65 1530.03 338.27C1537.07 342.89 1542.35 347.84 1545.87 353.12C1549.61 358.4 1551.59 363.13 1551.81 367.31C1552.03 369.73 1551.37 371.82 1549.83 373.58C1548.29 375.12 1546.53 375.89 1544.55 375.89H1501.32C1500.66 375.89 1499.89 375.89 1499.01 375.89C1498.35 375.67 1497.8 375.34 1497.36 374.9C1494.28 374.24 1491.42 373.03 1488.78 371.27C1486.36 369.29 1483.72 367.53 1480.86 365.99C1478 364.23 1474.37 363.35 1469.97 363.35C1466.23 363.35 1463.15 364.23 1460.73 365.99C1458.53 367.75 1457.43 370.06 1457.43 372.92C1457.43 375.34 1458.2 377.54 1459.74 379.52C1461.28 381.5 1464.8 383.37 1470.3 385.13C1475.8 386.89 1484.49 388.76 1496.37 390.74C1511.77 393.16 1524.09 397.23 1533.33 402.95C1542.57 408.45 1549.17 414.94 1553.13 422.42C1557.09 429.9 1559.07 437.38 1559.07 444.86C1559.07 456.08 1555.66 465.87 1548.84 474.23C1542.24 482.59 1532.34 489.08 1519.14 493.7C1506.16 498.1 1490.32 500.3 1471.62 500.3Z" fill="#C1E7FE"/>
</svg>
